<mxfile host="app.diagrams.net" modified="2022-11-16T23:47:44.722Z" agent="5.0 (Windows NT 10.0; Win64; x64) AppleWebKit/537.36 (KHTML, like Gecko) Chrome/107.0.0.0 Safari/537.36" etag="3nVLPAuOMNlRLfVRmidi" version="20.5.3" type="github" pages="2">
  <diagram id="4ikQtxZD_PR35KBjlBdZ" name="TRIR org structure">
    <mxGraphModel dx="2078" dy="555" grid="1" gridSize="10" guides="1" tooltips="1" connect="1" arrows="1" fold="1" page="1" pageScale="1" pageWidth="850" pageHeight="1100" math="0" shadow="0">
      <root>
        <mxCell id="0" />
        <mxCell id="1" parent="0" />
        <mxCell id="0NV8ZL9Bznjt_yEaeso6-6" style="edgeStyle=orthogonalEdgeStyle;rounded=0;orthogonalLoop=1;jettySize=auto;html=1;exitX=0.5;exitY=1;exitDx=0;exitDy=0;entryX=0.5;entryY=0;entryDx=0;entryDy=0;" edge="1" parent="1" source="0NV8ZL9Bznjt_yEaeso6-1">
          <mxGeometry relative="1" as="geometry">
            <mxPoint x="220" y="110" as="targetPoint" />
          </mxGeometry>
        </mxCell>
        <mxCell id="0NV8ZL9Bznjt_yEaeso6-7" style="edgeStyle=orthogonalEdgeStyle;rounded=0;orthogonalLoop=1;jettySize=auto;html=1;exitX=0.5;exitY=1;exitDx=0;exitDy=0;entryX=0.5;entryY=0;entryDx=0;entryDy=0;" edge="1" parent="1" source="0NV8ZL9Bznjt_yEaeso6-1" target="0NV8ZL9Bznjt_yEaeso6-3">
          <mxGeometry relative="1" as="geometry" />
        </mxCell>
        <mxCell id="0NV8ZL9Bznjt_yEaeso6-1" value="C level Branch" style="rounded=0;whiteSpace=wrap;html=1;fillColor=#306EFF;" vertex="1" parent="1">
          <mxGeometry x="470" y="10" width="120" height="60" as="geometry" />
        </mxCell>
        <mxCell id="0NV8ZL9Bznjt_yEaeso6-33" style="edgeStyle=orthogonalEdgeStyle;rounded=0;orthogonalLoop=1;jettySize=auto;html=1;exitX=0.5;exitY=1;exitDx=0;exitDy=0;entryX=0.5;entryY=0;entryDx=0;entryDy=0;" edge="1" parent="1" source="0NV8ZL9Bznjt_yEaeso6-3" target="0NV8ZL9Bznjt_yEaeso6-10">
          <mxGeometry relative="1" as="geometry" />
        </mxCell>
        <mxCell id="0NV8ZL9Bznjt_yEaeso6-34" style="edgeStyle=orthogonalEdgeStyle;rounded=0;orthogonalLoop=1;jettySize=auto;html=1;exitX=0.5;exitY=1;exitDx=0;exitDy=0;entryX=0.5;entryY=0;entryDx=0;entryDy=0;" edge="1" parent="1" source="0NV8ZL9Bznjt_yEaeso6-3" target="0NV8ZL9Bznjt_yEaeso6-11">
          <mxGeometry relative="1" as="geometry" />
        </mxCell>
        <mxCell id="0NV8ZL9Bznjt_yEaeso6-3" value="Umbrella Group" style="rounded=1;whiteSpace=wrap;html=1;fillColor=#5EC9FF;" vertex="1" parent="1">
          <mxGeometry x="800" y="110" width="120" height="60" as="geometry" />
        </mxCell>
        <mxCell id="0NV8ZL9Bznjt_yEaeso6-37" style="edgeStyle=orthogonalEdgeStyle;rounded=0;orthogonalLoop=1;jettySize=auto;html=1;exitX=0.5;exitY=1;exitDx=0;exitDy=0;entryX=0.5;entryY=0;entryDx=0;entryDy=0;" edge="1" parent="1" source="0NV8ZL9Bznjt_yEaeso6-10" target="0NV8ZL9Bznjt_yEaeso6-16">
          <mxGeometry relative="1" as="geometry" />
        </mxCell>
        <mxCell id="0NV8ZL9Bznjt_yEaeso6-38" style="edgeStyle=orthogonalEdgeStyle;rounded=0;orthogonalLoop=1;jettySize=auto;html=1;exitX=0.5;exitY=1;exitDx=0;exitDy=0;entryX=0.5;entryY=0;entryDx=0;entryDy=0;" edge="1" parent="1" source="0NV8ZL9Bznjt_yEaeso6-10" target="0NV8ZL9Bznjt_yEaeso6-17">
          <mxGeometry relative="1" as="geometry" />
        </mxCell>
        <mxCell id="0NV8ZL9Bznjt_yEaeso6-10" value="Parent Group" style="rounded=0;whiteSpace=wrap;html=1;fillColor=#CFFDFF;" vertex="1" parent="1">
          <mxGeometry x="660" y="220" width="120" height="60" as="geometry" />
        </mxCell>
        <mxCell id="0NV8ZL9Bznjt_yEaeso6-35" style="edgeStyle=orthogonalEdgeStyle;rounded=0;orthogonalLoop=1;jettySize=auto;html=1;exitX=0.5;exitY=1;exitDx=0;exitDy=0;entryX=0.5;entryY=0;entryDx=0;entryDy=0;" edge="1" parent="1" source="0NV8ZL9Bznjt_yEaeso6-11" target="0NV8ZL9Bznjt_yEaeso6-18">
          <mxGeometry relative="1" as="geometry" />
        </mxCell>
        <mxCell id="0NV8ZL9Bznjt_yEaeso6-36" style="edgeStyle=orthogonalEdgeStyle;rounded=0;orthogonalLoop=1;jettySize=auto;html=1;exitX=0.5;exitY=1;exitDx=0;exitDy=0;entryX=0.5;entryY=0;entryDx=0;entryDy=0;" edge="1" parent="1" source="0NV8ZL9Bznjt_yEaeso6-11" target="0NV8ZL9Bznjt_yEaeso6-19">
          <mxGeometry relative="1" as="geometry" />
        </mxCell>
        <mxCell id="0NV8ZL9Bznjt_yEaeso6-11" value="Parent Group" style="rounded=0;whiteSpace=wrap;html=1;fillColor=#CFFDFF;" vertex="1" parent="1">
          <mxGeometry x="960" y="220" width="120" height="60" as="geometry" />
        </mxCell>
        <mxCell id="0NV8ZL9Bznjt_yEaeso6-16" value="Department" style="rounded=1;whiteSpace=wrap;html=1;fillColor=#FFFFFF;" vertex="1" parent="1">
          <mxGeometry x="590" y="330" width="120" height="60" as="geometry" />
        </mxCell>
        <mxCell id="0NV8ZL9Bznjt_yEaeso6-17" value="Department" style="rounded=1;whiteSpace=wrap;html=1;fillColor=#FFFFFF;" vertex="1" parent="1">
          <mxGeometry x="740" y="330" width="120" height="60" as="geometry" />
        </mxCell>
        <mxCell id="0NV8ZL9Bznjt_yEaeso6-18" value="Department" style="rounded=1;whiteSpace=wrap;html=1;fillColor=#FFFFFF;" vertex="1" parent="1">
          <mxGeometry x="900" y="330" width="120" height="60" as="geometry" />
        </mxCell>
        <mxCell id="0NV8ZL9Bznjt_yEaeso6-19" value="Department" style="rounded=1;whiteSpace=wrap;html=1;fillColor=#FFFFFF;" vertex="1" parent="1">
          <mxGeometry x="1030" y="330" width="120" height="60" as="geometry" />
        </mxCell>
        <mxCell id="0NV8ZL9Bznjt_yEaeso6-27" style="edgeStyle=orthogonalEdgeStyle;rounded=0;orthogonalLoop=1;jettySize=auto;html=1;exitX=0.5;exitY=1;exitDx=0;exitDy=0;entryX=0.5;entryY=0;entryDx=0;entryDy=0;" edge="1" parent="1" source="0NV8ZL9Bznjt_yEaeso6-20" target="0NV8ZL9Bznjt_yEaeso6-21">
          <mxGeometry relative="1" as="geometry" />
        </mxCell>
        <mxCell id="0NV8ZL9Bznjt_yEaeso6-28" style="edgeStyle=orthogonalEdgeStyle;rounded=0;orthogonalLoop=1;jettySize=auto;html=1;exitX=0.5;exitY=1;exitDx=0;exitDy=0;" edge="1" parent="1" source="0NV8ZL9Bznjt_yEaeso6-20" target="0NV8ZL9Bznjt_yEaeso6-22">
          <mxGeometry relative="1" as="geometry" />
        </mxCell>
        <mxCell id="0NV8ZL9Bznjt_yEaeso6-20" value="Umbrella Group" style="rounded=1;whiteSpace=wrap;html=1;fillColor=#5EC9FF;" vertex="1" parent="1">
          <mxGeometry x="160" y="110" width="120" height="60" as="geometry" />
        </mxCell>
        <mxCell id="0NV8ZL9Bznjt_yEaeso6-31" style="edgeStyle=orthogonalEdgeStyle;rounded=0;orthogonalLoop=1;jettySize=auto;html=1;exitX=0.5;exitY=1;exitDx=0;exitDy=0;entryX=0.5;entryY=0;entryDx=0;entryDy=0;" edge="1" parent="1" source="0NV8ZL9Bznjt_yEaeso6-21" target="0NV8ZL9Bznjt_yEaeso6-23">
          <mxGeometry relative="1" as="geometry" />
        </mxCell>
        <mxCell id="0NV8ZL9Bznjt_yEaeso6-32" style="edgeStyle=orthogonalEdgeStyle;rounded=0;orthogonalLoop=1;jettySize=auto;html=1;exitX=0.5;exitY=1;exitDx=0;exitDy=0;entryX=0.5;entryY=0;entryDx=0;entryDy=0;" edge="1" parent="1" source="0NV8ZL9Bznjt_yEaeso6-21" target="0NV8ZL9Bznjt_yEaeso6-24">
          <mxGeometry relative="1" as="geometry" />
        </mxCell>
        <mxCell id="0NV8ZL9Bznjt_yEaeso6-21" value="Parent Group" style="rounded=0;whiteSpace=wrap;html=1;fillColor=#CFFDFF;" vertex="1" parent="1">
          <mxGeometry x="20" y="220" width="120" height="60" as="geometry" />
        </mxCell>
        <mxCell id="0NV8ZL9Bznjt_yEaeso6-29" style="edgeStyle=orthogonalEdgeStyle;rounded=0;orthogonalLoop=1;jettySize=auto;html=1;exitX=0.5;exitY=1;exitDx=0;exitDy=0;entryX=0.5;entryY=0;entryDx=0;entryDy=0;" edge="1" parent="1" source="0NV8ZL9Bznjt_yEaeso6-22" target="0NV8ZL9Bznjt_yEaeso6-25">
          <mxGeometry relative="1" as="geometry" />
        </mxCell>
        <mxCell id="0NV8ZL9Bznjt_yEaeso6-30" style="edgeStyle=orthogonalEdgeStyle;rounded=0;orthogonalLoop=1;jettySize=auto;html=1;exitX=0.5;exitY=1;exitDx=0;exitDy=0;entryX=0.5;entryY=0;entryDx=0;entryDy=0;" edge="1" parent="1" source="0NV8ZL9Bznjt_yEaeso6-22" target="0NV8ZL9Bznjt_yEaeso6-26">
          <mxGeometry relative="1" as="geometry" />
        </mxCell>
        <mxCell id="0NV8ZL9Bznjt_yEaeso6-22" value="Parent Group" style="rounded=0;whiteSpace=wrap;html=1;fillColor=#CFFDFF;" vertex="1" parent="1">
          <mxGeometry x="300" y="220" width="120" height="60" as="geometry" />
        </mxCell>
        <mxCell id="0NV8ZL9Bznjt_yEaeso6-23" value="Department" style="rounded=1;whiteSpace=wrap;html=1;fillColor=#FFFFFF;" vertex="1" parent="1">
          <mxGeometry x="-50" y="330" width="120" height="60" as="geometry" />
        </mxCell>
        <mxCell id="0NV8ZL9Bznjt_yEaeso6-24" value="Department" style="rounded=1;whiteSpace=wrap;html=1;fillColor=#FFFFFF;" vertex="1" parent="1">
          <mxGeometry x="80" y="330" width="120" height="60" as="geometry" />
        </mxCell>
        <mxCell id="0NV8ZL9Bznjt_yEaeso6-25" value="Department" style="rounded=1;whiteSpace=wrap;html=1;fillColor=#FFFFFF;" vertex="1" parent="1">
          <mxGeometry x="220" y="330" width="120" height="60" as="geometry" />
        </mxCell>
        <mxCell id="0NV8ZL9Bznjt_yEaeso6-26" value="Department" style="rounded=1;whiteSpace=wrap;html=1;fillColor=#FFFFFF;" vertex="1" parent="1">
          <mxGeometry x="370" y="330" width="120" height="60" as="geometry" />
        </mxCell>
      </root>
    </mxGraphModel>
  </diagram>
  <diagram id="JPGACa9Vc3AuNK8GkuSG" name="TRIR Classification">
    <mxGraphModel dx="1167" dy="527" grid="1" gridSize="10" guides="1" tooltips="1" connect="1" arrows="1" fold="1" page="1" pageScale="1" pageWidth="850" pageHeight="1100" math="0" shadow="0">
      <root>
        <mxCell id="0" />
        <mxCell id="1" parent="0" />
        <mxCell id="skb4Jlj11IIARicnLkOH-12" style="edgeStyle=orthogonalEdgeStyle;rounded=0;orthogonalLoop=1;jettySize=auto;html=1;exitX=0.5;exitY=1;exitDx=0;exitDy=0;entryX=0.5;entryY=0;entryDx=0;entryDy=0;" edge="1" parent="1" source="skb4Jlj11IIARicnLkOH-1" target="skb4Jlj11IIARicnLkOH-3">
          <mxGeometry relative="1" as="geometry" />
        </mxCell>
        <mxCell id="skb4Jlj11IIARicnLkOH-1" value="Receive Hours worked per department code" style="rounded=0;whiteSpace=wrap;html=1;fillColor=#FFFFFF;" vertex="1" parent="1">
          <mxGeometry x="360" y="20" width="120" height="60" as="geometry" />
        </mxCell>
        <mxCell id="skb4Jlj11IIARicnLkOH-13" style="edgeStyle=orthogonalEdgeStyle;rounded=0;orthogonalLoop=1;jettySize=auto;html=1;exitX=0.5;exitY=1;exitDx=0;exitDy=0;entryX=0.5;entryY=0;entryDx=0;entryDy=0;" edge="1" parent="1" source="skb4Jlj11IIARicnLkOH-3" target="skb4Jlj11IIARicnLkOH-4">
          <mxGeometry relative="1" as="geometry" />
        </mxCell>
        <mxCell id="skb4Jlj11IIARicnLkOH-3" value="Convert department codes to parent groups" style="rounded=1;whiteSpace=wrap;html=1;fillColor=#FFFFFF;" vertex="1" parent="1">
          <mxGeometry x="360" y="110" width="120" height="60" as="geometry" />
        </mxCell>
        <mxCell id="skb4Jlj11IIARicnLkOH-8" style="edgeStyle=orthogonalEdgeStyle;rounded=0;orthogonalLoop=1;jettySize=auto;html=1;exitX=0.5;exitY=1;exitDx=0;exitDy=0;entryX=0.5;entryY=0;entryDx=0;entryDy=0;" edge="1" parent="1" source="skb4Jlj11IIARicnLkOH-4" target="skb4Jlj11IIARicnLkOH-5">
          <mxGeometry relative="1" as="geometry" />
        </mxCell>
        <mxCell id="skb4Jlj11IIARicnLkOH-9" style="edgeStyle=orthogonalEdgeStyle;rounded=0;orthogonalLoop=1;jettySize=auto;html=1;exitX=0.5;exitY=1;exitDx=0;exitDy=0;entryX=0.5;entryY=0;entryDx=0;entryDy=0;" edge="1" parent="1" source="skb4Jlj11IIARicnLkOH-4" target="skb4Jlj11IIARicnLkOH-6">
          <mxGeometry relative="1" as="geometry" />
        </mxCell>
        <mxCell id="skb4Jlj11IIARicnLkOH-4" value="List of hours per parent group" style="rounded=0;whiteSpace=wrap;html=1;fillColor=#FFFFFF;" vertex="1" parent="1">
          <mxGeometry x="360" y="200" width="120" height="60" as="geometry" />
        </mxCell>
        <mxCell id="skb4Jlj11IIARicnLkOH-5" value="Calculate TRIR for each parent group" style="rounded=1;whiteSpace=wrap;html=1;fillColor=#FFFFFF;" vertex="1" parent="1">
          <mxGeometry x="200" y="330" width="120" height="60" as="geometry" />
        </mxCell>
        <mxCell id="skb4Jlj11IIARicnLkOH-11" style="edgeStyle=orthogonalEdgeStyle;rounded=0;orthogonalLoop=1;jettySize=auto;html=1;exitX=0.5;exitY=1;exitDx=0;exitDy=0;entryX=0.5;entryY=0;entryDx=0;entryDy=0;" edge="1" parent="1" source="skb4Jlj11IIARicnLkOH-6" target="skb4Jlj11IIARicnLkOH-10">
          <mxGeometry relative="1" as="geometry" />
        </mxCell>
        <mxCell id="skb4Jlj11IIARicnLkOH-6" value="Convert parent groups to umbrella groups" style="rounded=1;whiteSpace=wrap;html=1;fillColor=#FFFFFF;" vertex="1" parent="1">
          <mxGeometry x="520" y="330" width="120" height="60" as="geometry" />
        </mxCell>
        <mxCell id="skb4Jlj11IIARicnLkOH-10" value="Calculate TRIR for each umbrella group" style="rounded=0;whiteSpace=wrap;html=1;fillColor=#FFFFFF;" vertex="1" parent="1">
          <mxGeometry x="520" y="430" width="120" height="60" as="geometry" />
        </mxCell>
      </root>
    </mxGraphModel>
  </diagram>
</mxfile>
